<svg xmlns="http://www.w3.org/2000/svg" viewBox="0 0 1212.0 400" width="1212" height="400"><g transform="translate(28.0,28.0)"><circle cx="172.0" cy="172.0" r="137.6" fill="none" stroke="#C4302E" stroke-width="4.47" stroke-dasharray="15.48 13.76" stroke-linecap="round"/><path d="M332 -71Q327 -71 327 -61Q327 -28 383 107Q400 146 417.0 185.0Q434 224 450 263L496 398Q507 432 513.5 456.5Q520 481 520 497Q520 567 480.0 602.5Q440 638 374 638Q312 638 251.5 610.5Q191 583 141.5 536.0Q92 489 62 431Q19 349 19 281Q19 234 42.0 196.0Q65 158 102 144Q128 135 153 135Q188 135 218.0 150.5Q248 166 266.5 194.0Q285 222 285 257Q285 261 285.0 265.5Q285 270 284 274Q280 286 290 286Q301 286 302 270Q303 266 303.5 262.0Q304 258 304 253Q304 217 280.0 186.0Q256 155 218.5 135.5Q181 116 141 116Q100 116 62 136Q-19 180 -19 289Q-19 367 23 440Q61 506 122.0 555.0Q183 604 256.0 631.5Q329 659 401 659Q451 659 491.0 643.5Q531 628 554.5 596.5Q578 565 578 516Q578 423 494 237Q398 26 398 0Q398 -7 403 -5Q429 12 638 263Q745 391 819.5 470.5Q894 550 937 581Q975 610 1003.0 628.5Q1031 647 1048 657Q1110 691 1162 691Q1185 691 1197.5 686.5Q1210 682 1210 662Q1210 649 1201 649Q1198 649 1187.0 653.5Q1176 658 1165 658Q1112 658 1054 627Q938 565 788 405Q745 359 687.5 291.0Q630 223 558 132Q444 -12 421 -25Q378 -50 356.5 -60.5Q335 -71 332 -71Z" transform="translate(172.0,172.0) scale(0.14555,-0.14555) translate(-595.500,-310.000)" fill="#C4302E"/></g><path d="M332 -71Q327 -71 327 -61Q327 -28 383 107Q400 146 417.0 185.0Q434 224 450 263L496 398Q507 432 513.5 456.5Q520 481 520 497Q520 567 480.0 602.5Q440 638 374 638Q312 638 251.5 610.5Q191 583 141.5 536.0Q92 489 62 431Q19 349 19 281Q19 234 42.0 196.0Q65 158 102 144Q128 135 153 135Q188 135 218.0 150.5Q248 166 266.5 194.0Q285 222 285 257Q285 261 285.0 265.5Q285 270 284 274Q280 286 290 286Q301 286 302 270Q303 266 303.5 262.0Q304 258 304 253Q304 217 280.0 186.0Q256 155 218.5 135.5Q181 116 141 116Q100 116 62 136Q-19 180 -19 289Q-19 367 23 440Q61 506 122.0 555.0Q183 604 256.0 631.5Q329 659 401 659Q451 659 491.0 643.5Q531 628 554.5 596.5Q578 565 578 516Q578 423 494 237Q398 26 398 0Q398 -7 403 -5Q429 12 638 263Q745 391 819.5 470.5Q894 550 937 581Q975 610 1003.0 628.5Q1031 647 1048 657Q1110 691 1162 691Q1185 691 1197.5 686.5Q1210 682 1210 662Q1210 649 1201 649Q1198 649 1187.0 653.5Q1176 658 1165 658Q1112 658 1054 627Q938 565 788 405Q745 359 687.5 291.0Q630 223 558 132Q444 -12 421 -25Q378 -50 356.5 -60.5Q335 -71 332 -71ZM757 -5Q733 -5 709.0 12.0Q685 29 682 52Q672 129 779 235Q885 341 970 341Q993 341 1006 330Q1013 323 1016.5 311.0Q1020 299 1022 299Q1026 299 1029.0 300.5Q1032 302 1036 302Q1048 302 1057.0 293.0Q1066 284 1067 277Q1068 275 1003 178Q938 83 944 49Q949 26 966 26Q1018 26 1156 198Q1159 202 1162 202Q1167 202 1167 195Q1167 187 1158 175Q1031 4 963 4Q954 4 946 7Q902 24 902 73Q902 90 906 107L844 47Q816 19 793.5 7.0Q771 -5 757 -5ZM748 17Q806 17 906 144L1012 290Q1004 304 986 304Q925 304 821 206Q713 106 724 41Q729 17 748 17ZM1178 -2Q1149 -2 1124.0 12.5Q1099 27 1099 61Q1099 108 1132.5 173.0Q1166 238 1209 308Q1326 498 1375 498Q1385 498 1395.5 490.5Q1406 483 1407 474L1337 380Q1296 325 1263.0 278.5Q1230 232 1206 195Q1194 176 1179.0 152.0Q1164 128 1152.5 102.5Q1141 77 1141 51Q1141 39 1148.0 29.5Q1155 20 1173 20Q1205 20 1257.0 54.5Q1309 89 1360 150Q1365 156 1371.0 161.0Q1377 166 1381 166Q1386 166 1386 160Q1386 157 1379.5 148.5Q1373 140 1369 135L1345 108Q1325 86 1297.5 60.0Q1270 34 1239.5 16.0Q1209 -2 1178 -2ZM1412 -5Q1382 -5 1361.0 11.5Q1340 28 1337 52Q1333 84 1346.5 116.5Q1360 149 1383.5 179.0Q1407 209 1434 235Q1540 341 1625 341Q1654 341 1664 326Q1668 321 1673 303Q1785 485 1829 485Q1839 485 1850.0 480.0Q1861 475 1861 467Q1861 462 1856 454Q1826 417 1796.0 380.5Q1766 344 1737 307Q1688 245 1658.0 199.0Q1628 153 1615 121Q1611 111 1607.5 96.5Q1604 82 1604 67Q1604 48 1612.0 34.0Q1620 20 1641 20Q1674 20 1722.0 52.0Q1770 84 1834 157Q1838 161 1841.5 164.0Q1845 167 1849 168Q1858 170 1858 164Q1858 161 1852 153Q1821 116 1783.0 80.0Q1745 44 1705.5 20.5Q1666 -3 1632 -3Q1598 -3 1584.0 20.0Q1570 43 1570 72Q1570 102 1581 127L1500 46Q1473 19 1450.5 7.0Q1428 -5 1412 -5ZM1403 17Q1446 17 1546 135Q1551 141 1581.0 179.5Q1611 218 1666 292Q1659 304 1642 304Q1580 304 1476 206Q1378 115 1378 53Q1378 17 1403 17ZM1863 -13Q1831 -13 1805.0 7.5Q1779 28 1779 62Q1779 133 1866 224Q1955 316 2025 316Q2048 316 2062.5 303.5Q2077 291 2077 273Q2077 217 1988 163Q1909 115 1855 115Q1847 115 1841 117Q1826 90 1826 60Q1826 8 1875 8Q1925 8 2004 75Q2065 124 2108 179Q2117 191 2124 191Q2130 191 2130 185Q2130 179 2122 168Q2094 131 2062.0 100.0Q2030 69 1993 43Q1916 -13 1863 -13ZM1869 137Q1907 137 1968 175Q1988 189 2007.5 206.5Q2027 224 2039.5 242.0Q2052 260 2052 274Q2052 287 2031 287Q2001 287 1947 242Q1921 220 1897.0 194.0Q1873 168 1856 139Q1862 137 1869 137ZM2131 -6Q2099 -6 2080.5 9.5Q2062 25 2062 65Q2062 88 2076.0 123.5Q2090 159 2111.0 200.0Q2132 241 2153 281Q2140 278 2130 278Q2100 278 2100 301Q2100 312 2108.5 318.0Q2117 324 2124 325Q2124 325 2126.5 325.0Q2129 325 2133 326H2191Q2209 349 2228 375Q2255 409 2271 415H2274Q2281 415 2294 408Q2310 399 2310 390Q2310 377 2262 323Q2271 322 2288.0 322.0Q2305 322 2330 322Q2342 322 2364.5 322.0Q2387 322 2411.5 322.5Q2436 323 2454.0 323.5Q2472 324 2474 324Q2477 323 2477 321Q2477 312 2359 297Q2292 288 2256.5 283.0Q2221 278 2218 277Q2204 265 2184.0 236.0Q2164 207 2144.0 171.0Q2124 135 2110.5 102.5Q2097 70 2097 52Q2097 36 2109.0 25.5Q2121 15 2148 15Q2166 15 2191.0 23.0Q2216 31 2238.5 41.5Q2261 52 2271 58Q2297 74 2328.5 100.5Q2360 127 2391 161Q2405 175 2410 175Q2413 175 2413 171Q2413 163 2398 145Q2374 116 2344.5 89.5Q2315 63 2279 41Q2238 16 2200.5 5.0Q2163 -6 2131 -6ZM2417 -13Q2385 -13 2359.0 7.5Q2333 28 2333 62Q2333 133 2420 224Q2509 316 2579 316Q2602 316 2616.5 303.5Q2631 291 2631 273Q2631 217 2542 163Q2463 115 2409 115Q2401 115 2395 117Q2380 90 2380 60Q2380 8 2429 8Q2479 8 2558 75Q2619 124 2662 179Q2671 191 2678 191Q2684 191 2684 185Q2684 179 2676 168Q2648 131 2616.0 100.0Q2584 69 2547 43Q2470 -13 2417 -13ZM2423 137Q2461 137 2522 175Q2542 189 2561.5 206.5Q2581 224 2593.5 242.0Q2606 260 2606 274Q2606 287 2585 287Q2555 287 2501 242Q2475 220 2451.0 194.0Q2427 168 2410 139Q2416 137 2423 137Z" transform="translate(412.000,80.000) scale(0.28117,-0.28117) translate(19.000,-691.000)" fill="#C4302E" /><path d="M166 350Q166 425 199.5 480.5Q233 536 287.0 566.5Q341 597 405 597Q455 597 495.5 584.0Q536 571 568.0 548.5Q600 526 624 498V638Q581 675 529.5 694.0Q478 713 401 713Q324 713 257.5 686.5Q191 660 142.0 611.5Q93 563 65.5 496.5Q38 430 38 350Q38 271 65.5 204.5Q93 138 142.0 89.0Q191 40 257.5 14.0Q324 -12 401 -12Q478 -12 529.5 7.0Q581 26 624 62V203Q600 174 568.0 151.5Q536 129 495.5 116.0Q455 103 405 103Q341 103 287.0 134.0Q233 165 199.5 220.5Q166 276 166 350ZM1284 350Q1284 422 1315.0 478.5Q1346 535 1399.5 567.0Q1453 599 1522 599Q1593 599 1646.5 567.0Q1700 535 1730.0 478.5Q1760 422 1760 350Q1760 278 1729.5 222.0Q1699 166 1645.5 133.5Q1592 101 1522 101Q1453 101 1399.5 133.5Q1346 166 1315.0 222.0Q1284 278 1284 350ZM1159 350Q1159 272 1186.0 205.0Q1213 138 1262.0 89.0Q1311 40 1377.5 12.5Q1444 -15 1522 -15Q1602 -15 1668.0 12.5Q1734 40 1783.0 89.0Q1832 138 1859.0 205.0Q1886 272 1886 350Q1886 429 1859.0 495.0Q1832 561 1782.5 609.5Q1733 658 1667.0 685.5Q1601 713 1522 713Q1445 713 1378.5 685.5Q1312 658 1262.5 609.5Q1213 561 1186.0 495.0Q1159 429 1159 350ZM2478 226 2390 164Q2413 116 2452.5 75.0Q2492 34 2544.5 9.5Q2597 -15 2658 -15Q2703 -15 2744.5 -0.5Q2786 14 2819.0 40.5Q2852 67 2871.5 106.0Q2891 145 2891 194Q2891 240 2875.0 274.5Q2859 309 2833.5 334.0Q2808 359 2776.5 376.0Q2745 393 2713 404Q2657 424 2622.0 443.0Q2587 462 2570.5 483.5Q2554 505 2554 532Q2554 562 2577.0 584.5Q2600 607 2649 607Q2684 607 2710.5 593.5Q2737 580 2757.0 557.5Q2777 535 2791 509L2886 563Q2869 600 2837.0 634.0Q2805 668 2759.0 690.5Q2713 713 2651 713Q2588 713 2538.5 689.0Q2489 665 2460.0 622.5Q2431 580 2431 524Q2431 475 2450.0 440.5Q2469 406 2498.0 382.5Q2527 359 2559.0 343.5Q2591 328 2617 319Q2661 303 2695.0 286.5Q2729 270 2747.5 246.5Q2766 223 2766 185Q2766 143 2736.0 117.0Q2706 91 2658 91Q2619 91 2586.5 108.0Q2554 125 2527.5 155.0Q2501 185 2478 226ZM3371 591H3556V0H3674V591H3859V700H3371ZM4370 700V230Q4370 172 4388.5 126.5Q4407 81 4441.0 49.0Q4475 17 4522.0 0.0Q4569 -17 4625 -17Q4681 -17 4728.0 0.0Q4775 17 4809.5 49.0Q4844 81 4862.5 126.5Q4881 172 4881 230V700H4762V235Q4762 171 4727.5 131.0Q4693 91 4625 91Q4558 91 4523.0 131.0Q4488 171 4488 235V700ZM5606 334 5828 0H5971L5733 334ZM5461 700V0H5579V700ZM5531 598H5672Q5713 598 5743.0 584.0Q5773 570 5790.0 544.0Q5807 518 5807 480Q5807 443 5790.0 416.5Q5773 390 5743.0 376.5Q5713 363 5672 363H5531V265H5677Q5754 265 5810.0 292.0Q5866 319 5897.5 368.0Q5929 417 5929 483Q5929 549 5897.5 597.5Q5866 646 5810.0 673.0Q5754 700 5677 700H5531ZM6570 180H6940L6918 280H6593ZM6753 502 6865 242 6867 213 6962 0H7096L6753 739L6411 0H6544L6641 219L6643 245ZM7652 226 7564 164Q7587 116 7626.5 75.0Q7666 34 7718.5 9.5Q7771 -15 7832 -15Q7877 -15 7918.5 -0.5Q7960 14 7993.0 40.5Q8026 67 8045.5 106.0Q8065 145 8065 194Q8065 240 8049.0 274.5Q8033 309 8007.5 334.0Q7982 359 7950.5 376.0Q7919 393 7887 404Q7831 424 7796.0 443.0Q7761 462 7744.5 483.5Q7728 505 7728 532Q7728 562 7751.0 584.5Q7774 607 7823 607Q7858 607 7884.5 593.5Q7911 580 7931.0 557.5Q7951 535 7965 509L8060 563Q8043 600 8011.0 634.0Q7979 668 7933.0 690.5Q7887 713 7825 713Q7762 713 7712.5 689.0Q7663 665 7634.0 622.5Q7605 580 7605 524Q7605 475 7624.0 440.5Q7643 406 7672.0 382.5Q7701 359 7733.0 343.5Q7765 328 7791 319Q7835 303 7869.0 286.5Q7903 270 7921.5 246.5Q7940 223 7940 185Q7940 143 7910.0 117.0Q7880 91 7832 91Q7793 91 7760.5 108.0Q7728 125 7701.5 155.0Q7675 185 7652 226Z" transform="translate(632.000,318.251) scale(0.03987,-0.03987) translate(-38.000,-739.000)" fill="#C4302E" /><line x1="566.0" y1="333.3199740553766" x2="618.0" y2="333.3199740553766" stroke="#C4302E" stroke-width="4.0" stroke-dasharray="8.0 8.0" stroke-linecap="round"/><line x1="966.0" y1="333.3199740553766" x2="1018.0" y2="333.3199740553766" stroke="#C4302E" stroke-width="4.0" stroke-dasharray="8.0 8.0" stroke-linecap="round"/></svg>